<svg xmlns="http://www.w3.org/2000/svg" width="720" height="1280" viewBox="0 0 720 1280">
  <defs>
    <linearGradient id="bg" x1="0" y1="0" x2="1" y2="1"><stop offset="0%" stop-color="#09090b"/><stop offset="100%" stop-color="#1a1a2e"/></linearGradient>
  </defs>
  <rect width="720" height="1280" fill="url(#bg)"/>
  <!-- Header -->
  <rect x="0" y="0" width="720" height="56" fill="#09090b" opacity="0.95"/>
  <rect x="20" y="18" width="100" height="10" rx="5" fill="#e4e4e7"/>
  <rect x="20" y="32" width="60" height="6" rx="3" fill="#52525b"/>
  <circle cx="680" cy="28" r="12" fill="#1c1c24"/>
  <!-- Cards -->
  <rect x="20" y="76" width="680" height="100" rx="12" fill="#1a1a2e" stroke="#2a2a3e" stroke-width="0.5"/>
  <rect x="40" y="92" width="36" height="36" rx="8" fill="#93c5fd" opacity="0.15"/>
  <rect x="86" y="98" width="80" height="8" rx="4" fill="#e4e4e7"/>
  <rect x="40" y="140" width="640" height="20" rx="6" fill="#1c1c24"/>
  <rect x="40" y="148" width="120" height="6" rx="3" fill="#3a3a4e"/>
  <rect x="20" y="188" width="680" height="100" rx="12" fill="#1a1a2e" stroke="#2a2a3e" stroke-width="0.5"/>
  <rect x="40" y="204" width="36" height="36" rx="8" fill="#fbbf24" opacity="0.15"/>
  <rect x="86" y="210" width="80" height="8" rx="4" fill="#e4e4e7"/>
  <rect x="40" y="252" width="640" height="20" rx="6" fill="#1c1c24"/>
  <rect x="40" y="260" width="120" height="6" rx="3" fill="#3a3a4e"/>
  <!-- Chart -->
  <rect x="20" y="304" width="680" height="300" rx="12" fill="#1a1a2e" stroke="#2a2a3e" stroke-width="0.5"/>
  <rect x="40" y="322" width="100" height="8" rx="4" fill="#e4e4e7"/>
  <rect x="40" y="344" width="640" height="240" rx="6" fill="#1c1c24"/>
  <circle cx="100" cy="460" r="4" fill="#93c5fd"/><circle cx="160" cy="420" r="3" fill="#93c5fd"/>
  <circle cx="220" cy="440" r="3" fill="#93c5fd"/><circle cx="280" cy="390" r="3" fill="#93c5fd"/>
  <circle cx="340" cy="410" r="3" fill="#93c5fd"/><circle cx="400" cy="370" r="3" fill="#93c5fd"/>
  <circle cx="460" cy="400" r="3" fill="#93c5fd"/><circle cx="520" cy="380" r="3" fill="#93c5fd"/>
  <rect x="40" y="570" width="60" height="6" rx="3" fill="#93c5fd"/>
  <rect x="110" y="570" width="60" height="6" rx="3" fill="#22c55e"/>
  <!-- Bottom menu -->
  <rect x="20" y="620" width="680" height="60" rx="12" fill="#1a1a2e" stroke="#2a2a3e" stroke-width="0.5"/>
  <rect x="40" y="636" width="36" height="28" rx="6" fill="#1c1c24"/>
  <rect x="120" y="636" width="36" height="28" rx="6" fill="#1c1c24"/>
  <rect x="200" y="636" width="36" height="28" rx="6" fill="#1c1c24"/>
  <rect x="280" y="636" width="36" height="28" rx="6" fill="#1c1c24"/>
  <rect x="360" y="636" width="36" height="28" rx="6" fill="#93c5fd" opacity="0.3"/>
  <rect x="440" y="636" width="36" height="28" rx="6" fill="#1c1c24"/>
  <rect x="520" y="636" width="36" height="28" rx="6" fill="#1c1c24"/>
  <!-- Content list -->
  <rect x="20" y="696" width="680" height="500" rx="12" fill="#1a1a2e" stroke="#2a2a3e" stroke-width="0.5"/>
  <rect x="40" y="716" width="120" height="8" rx="4" fill="#e4e4e7"/>
  <rect x="40" y="740" width="640" height="52" rx="8" fill="#1c1c24"/>
  <rect x="56" y="754" width="80" height="6" rx="3" fill="#e4e4e7"/>
  <rect x="56" y="768" width="120" height="5" rx="2.5" fill="#52525b"/>
  <rect x="40" y="804" width="640" height="52" rx="8" fill="#1c1c24"/>
  <rect x="56" y="818" width="80" height="6" rx="3" fill="#e4e4e7"/>
  <rect x="56" y="832" width="120" height="5" rx="2.5" fill="#52525b"/>
  <rect x="40" y="868" width="640" height="52" rx="8" fill="#1c1c24"/>
  <rect x="56" y="882" width="80" height="6" rx="3" fill="#e4e4e7"/>
  <rect x="56" y="896" width="120" height="5" rx="2.5" fill="#52525b"/>
</svg>
