<svg xmlns="http://www.w3.org/2000/svg" width="1280" height="720" viewBox="0 0 1280 720">
  <defs>
    <linearGradient id="bg" x1="0" y1="0" x2="1" y2="1"><stop offset="0%" stop-color="#09090b"/><stop offset="100%" stop-color="#1a1a2e"/></linearGradient>
  </defs>
  <rect width="1280" height="720" fill="url(#bg)"/>
  <!-- Sidebar -->
  <rect x="0" y="0" width="240" height="720" fill="#0f0f14" rx="0"/>
  <rect x="16" y="16" width="208" height="40" rx="8" fill="#1c1c24"/>
  <circle cx="40" cy="36" r="12" fill="#e4e4e7"/>
  <rect x="58" y="28" width="60" height="8" rx="4" fill="#e4e4e7"/>
  <!-- Nav items -->
  <rect x="16" y="72" width="208" height="28" rx="6" fill="#1c1c24"/>
  <rect x="16" y="108" width="208" height="28" rx="6" fill="#1c1c24"/>
  <rect x="16" y="144" width="208" height="28" rx="6" fill="#1c1c24"/>
  <!-- Header -->
  <rect x="240" y="0" width="1040" height="56" fill="#09090b" opacity="0.9"/>
  <rect x="260" y="18" width="120" height="10" rx="5" fill="#e4e4e7"/>
  <rect x="260" y="32" width="80" height="6" rx="3" fill="#52525b"/>
  <circle cx="1230" cy="28" r="12" fill="#1c1c24"/>
  <!-- Cards -->
  <rect x="270" y="80" width="220" height="130" rx="12" fill="#1a1a2e" stroke="#2a2a3e" stroke-width="0.5"/>
  <rect x="290" y="96" width="40" height="40" rx="8" fill="#93c5fd" opacity="0.15"/>
  <rect x="340" y="102" width="80" height="8" rx="4" fill="#e4e4e7"/>
  <rect x="290" y="148" width="180" height="40" rx="6" fill="#1c1c24"/>
  <rect x="290" y="168" width="120" height="6" rx="3" fill="#3a3a4e"/>
  <rect x="510" y="80" width="220" height="130" rx="12" fill="#1a1a2e" stroke="#2a2a3e" stroke-width="0.5"/>
  <rect x="530" y="96" width="40" height="40" rx="8" fill="#fbbf24" opacity="0.15"/>
  <rect x="580" y="102" width="80" height="8" rx="4" fill="#e4e4e7"/>
  <rect x="530" y="148" width="180" height="40" rx="6" fill="#1c1c24"/>
  <rect x="530" y="168" width="120" height="6" rx="3" fill="#3a3a4e"/>
  <rect x="750" y="80" width="220" height="130" rx="12" fill="#1a1a2e" stroke="#2a2a3e" stroke-width="0.5"/>
  <rect x="770" y="96" width="40" height="40" rx="8" fill="#22c55e" opacity="0.15"/>
  <rect x="820" y="102" width="80" height="8" rx="4" fill="#e4e4e7"/>
  <rect x="770" y="148" width="180" height="40" rx="6" fill="#1c1c24"/>
  <rect x="770" y="168" width="120" height="6" rx="3" fill="#3a3a4e"/>
  <!-- Chart area -->
  <rect x="270" y="230" width="700" height="240" rx="12" fill="#1a1a2e" stroke="#2a2a3e" stroke-width="0.5"/>
  <rect x="290" y="248" width="100" height="8" rx="4" fill="#e4e4e7"/>
  <rect x="290" y="270" width="660" height="180" rx="6" fill="#1c1c24"/>
  <circle cx="340" cy="380" r="4" fill="#93c5fd"/><circle cx="400" cy="340" r="3" fill="#93c5fd"/>
  <circle cx="460" cy="360" r="3" fill="#93c5fd"/><circle cx="520" cy="310" r="3" fill="#93c5fd"/>
  <circle cx="580" cy="330" r="3" fill="#93c5fd"/><circle cx="640" cy="290" r="3" fill="#93c5fd"/>
  <circle cx="700" cy="320" r="3" fill="#93c5fd"/><circle cx="760" cy="300" r="3" fill="#93c5fd"/>
  <rect x="290" y="460" width="80" height="6" rx="3" fill="#93c5fd"/>
  <rect x="380" y="460" width="80" height="6" rx="3" fill="#22c55e"/>
  <!-- Right panel -->
  <rect x="1000" y="80" width="260" height="400" rx="12" fill="#1a1a2e" stroke="#2a2a3e" stroke-width="0.5"/>
  <rect x="1020" y="100" width="100" height="8" rx="4" fill="#e4e4e7"/>
  <rect x="1020" y="120" width="220" height="60" rx="8" fill="#1c1c24"/>
  <rect x="1020" y="140" width="120" height="6" rx="3" fill="#52525b"/>
  <rect x="1020" y="192" width="220" height="60" rx="8" fill="#1c1c24"/>
  <rect x="1020" y="212" width="120" height="6" rx="3" fill="#52525b"/>
  <rect x="1020" y="264" width="220" height="60" rx="8" fill="#1c1c24"/>
  <rect x="1020" y="284" width="120" height="6" rx="3" fill="#52525b"/>
  <!-- Bottom text -->
  <text x="270" y="500" fill="#71717a" font-family="sans-serif" font-size="14">CityMotion — Gestão Inteligente de Frota</text>
</svg>
